<svg xmlns="http://www.w3.org/2000/svg" width="20" height="20" viewBox="0 0 48 48"><path fill="#EA4335" d="M24 9.5c3.54 0 6.72 1.21 9.22 3.58l6.88-6.88C35.66 2.46 30.03 0 24 0 14.73 0 6.93 5.4 3.04 13.24l7.99 6.2C12.99 12.33 18.98 9.5 24 9.5z"/><path fill="#34A853" d="M46.5 24.5c0-1.6-.14-3.14-.4-4.61H24v9.03h12.71c-.55 3.04-2.26 5.62-4.84 7.36l7.83 6.08C43.9 38.98 46.5 32.9 46.5 24.5z"/><path fill="#4A90E2" d="M10.03 29.44A14.76 14.76 0 0110 24c0-1.44.26-2.84.73-4.14L2.74 13.64A24 24 0 000 24c0 3.92.95 7.63 2.74 11.22l7.29-5.78z"/><path fill="#FBBC05" d="M24 48c6.03 0 11.66-1.98 16-5.38l-7.83-6.08C30.72 37.6 27.99 38.5 24 38.5c-5.02 0-11.01-2.83-13-9.96l-7.99 6.2C6.93 42.6 14.73 48 24 48z"/></svg>